<?xml version="1.0" encoding="UTF-8" standalone="no"?>
<!DOCTYPE svg PUBLIC "-//W3C//DTD SVG 1.1//EN" "http://www.w3.org/Graphics/SVG/1.1/DTD/svg11.dtd">
<svg width="100%" height="100%" viewBox="0 0 1000 1000" version="1.1" xmlns="http://www.w3.org/2000/svg" xmlns:xlink="http://www.w3.org/1999/xlink" xml:space="preserve" xmlns:serif="http://www.serif.com/" style="fill-rule:evenodd;clip-rule:evenodd;stroke-linejoin:round;stroke-miterlimit:2;">
    <path d="M1000,304.348L1000,695.652C1000,863.626 863.626,1000 695.652,1000L304.348,1000C136.374,1000 0,863.626 0,695.652L0,304.348C0,136.374 136.374,0 304.348,0L695.652,0C863.626,0 1000,136.374 1000,304.348Z" style="fill:rgb(23,23,23);"/>
    <g transform="matrix(11.662843,0,0,11.662843,-2810.972662,-4305.237098)">
        <g transform="matrix(50,0,0,50,254.940711,429.512516)">
            <path d="M0.309,0.014C0.255,0.014 0.207,0.004 0.166,-0.015C0.125,-0.034 0.092,-0.062 0.069,-0.098C0.046,-0.134 0.034,-0.177 0.034,-0.228L0.034,-0.256L0.164,-0.256L0.164,-0.228C0.164,-0.186 0.177,-0.154 0.203,-0.134C0.229,-0.113 0.264,-0.102 0.309,-0.102C0.354,-0.102 0.388,-0.111 0.411,-0.129C0.433,-0.147 0.444,-0.17 0.444,-0.198C0.444,-0.217 0.439,-0.233 0.427,-0.245C0.417,-0.257 0.401,-0.267 0.38,-0.275C0.359,-0.282 0.333,-0.289 0.303,-0.296L0.28,-0.301C0.232,-0.312 0.191,-0.325 0.157,-0.342C0.122,-0.358 0.096,-0.379 0.077,-0.406C0.059,-0.433 0.05,-0.467 0.05,-0.51C0.05,-0.553 0.06,-0.589 0.081,-0.62C0.101,-0.65 0.13,-0.673 0.167,-0.69C0.204,-0.706 0.247,-0.714 0.297,-0.714C0.347,-0.714 0.392,-0.705 0.43,-0.689C0.47,-0.671 0.5,-0.646 0.522,-0.613C0.545,-0.579 0.556,-0.537 0.556,-0.486L0.556,-0.456L0.426,-0.456L0.426,-0.486C0.426,-0.513 0.421,-0.534 0.411,-0.55C0.4,-0.567 0.385,-0.579 0.366,-0.587C0.347,-0.594 0.324,-0.598 0.297,-0.598C0.257,-0.598 0.228,-0.591 0.208,-0.576C0.19,-0.561 0.18,-0.54 0.18,-0.514C0.18,-0.497 0.184,-0.482 0.194,-0.47C0.203,-0.458 0.216,-0.448 0.234,-0.44C0.252,-0.432 0.275,-0.425 0.303,-0.419L0.326,-0.414C0.376,-0.403 0.42,-0.39 0.457,-0.373C0.494,-0.356 0.522,-0.334 0.543,-0.307C0.564,-0.28 0.574,-0.245 0.574,-0.202C0.574,-0.159 0.563,-0.122 0.541,-0.089C0.52,-0.057 0.489,-0.032 0.45,-0.013C0.41,0.005 0.363,0.014 0.309,0.014Z" style="fill:rgb(242,244,247);fill-rule:nonzero;"/>
        </g>
        <g transform="matrix(50,0,0,50,285.240711,429.512516)">
            <path d="M0.066,-0L0.066,-0.7L0.198,-0.7L0.198,-0.12L0.518,-0.12L0.518,-0L0.066,-0Z" style="fill:rgb(242,244,247);fill-rule:nonzero;"/>
        </g>
        <g transform="matrix(50,0,0,50,312.340711,429.512516)">
        </g>
    </g>
</svg>
